<mxfile host="app.diagrams.net" modified="2024-03-01T22:17:56.706Z" agent="Mozilla/5.0 (Windows NT 10.0; Win64; x64) AppleWebKit/537.36 (KHTML, like Gecko) Chrome/122.0.0.0 Safari/537.36" version="24.0.0" etag="VAP8I5oO5SySWZrEDlcm" type="github">
  <diagram name="PÃ¡gina-1" id="cjV1XczUxnyRTyq0W2cx">
    <mxGraphModel>
      <root>
        <mxCell id="0" />
        <mxCell id="1" parent="0" />
      </root>
    </mxGraphModel>
  </diagram>
</mxfile>
